#N canvas 0 25 724 496 12;
#X obj 215 34 inlet;
#X text 96 35 base frequency;
#X text 416 38 detune amount (Hz);
#X obj 348 35 inlet;
#X obj 325 122 -;
#X obj 283 243 +~;
#X obj 283 293 *~ 0.5;
#X obj 283 339 outlet~;
#X obj 324 180 synth;
#X obj 186 181 synth;
#X connect 0 0 4 0;
#X connect 0 0 9 0;
#X connect 3 0 4 1;
#X connect 4 0 8 0;
#X connect 5 0 6 0;
#X connect 6 0 7 0;
#X connect 8 0 5 1;
#X connect 9 0 5 0;
