#N canvas -9 -9 1920 976 12;
#X obj 893 83 adc~ 3 4 5 6 7 8 9 10;
#X obj 851 341 pack 0 0 0 0 0 0 0 0;
#X obj 629 119 snapshot~;
#X obj 731 58 metro 10;
#X obj 699 139 snapshot~;
#X obj 772 166 snapshot~;
#X obj 835 187 snapshot~;
#X obj 892 209 snapshot~;
#X obj 949 235 snapshot~;
#X obj 1016 257 snapshot~;
#X obj 1071 282 snapshot~;
#X obj 854 432 print;
#X obj 729 13 loadbang;
#X connect 0 0 2 0;
#X connect 0 1 4 0;
#X connect 0 2 5 0;
#X connect 0 3 6 0;
#X connect 0 4 7 0;
#X connect 0 5 8 0;
#X connect 0 6 9 0;
#X connect 0 7 10 0;
#X connect 1 0 11 0;
#X connect 2 0 1 0;
#X connect 3 0 2 0;
#X connect 3 0 4 0;
#X connect 3 0 5 0;
#X connect 3 0 6 0;
#X connect 3 0 7 0;
#X connect 3 0 8 0;
#X connect 3 0 9 0;
#X connect 3 0 10 0;
#X connect 4 0 1 1;
#X connect 5 0 1 2;
#X connect 6 0 1 3;
#X connect 7 0 1 4;
#X connect 8 0 1 5;
#X connect 9 0 1 6;
#X connect 10 0 1 7;
#X connect 12 0 3 0;
