#N canvas -9 -9 1920 976 10;
#X msg 247 81 bang;
#X obj 187 227 snapshot~;
#X floatatom 190 261 5 0 0 0 - - -;
#X obj 424 723 print;
#X msg 148 66 stop;
#X obj 193 283 expr abs($f1);
#X floatatom 268 399 5 0 0 0 - - -;
#X obj 274 428 moses 0;
#X obj 360 444 f;
#X floatatom 372 506 5 0 0 0 - - -;
#X obj 283 521 bng 15 250 50 0 empty empty empty 17 7 0 10 -262144
-1 -1;
#X obj 380 527 spigot;
#X floatatom 401 556 5 0 0 0 - - -;
#X msg 295 546 1;
#X obj 337 523 bng 15 250 50 0 empty empty empty 17 7 0 10 -262144
-1 -1;
#X msg 349 548 0;
#X msg 313 394 0;
#X obj 314 361 bng 15 250 50 0 empty empty empty 17 7 0 10 -262144
-1 -1;
#X obj 255 778 osc~ 440;
#X obj 595 759 vline~;
#X obj 458 818 *~;
#X msg 475 702 \$1 10 \, \$2 50 10 \, 0 100 60;
#X obj 472 647 pack 0 0;
#X obj 418 619 clip 0 1;
#X obj 264 27 loadbang;
#X obj 196 379 moses 0.03;
#X obj 392 588 * 8;
#X obj 208 123 metro 1;
#X floatatom 543 842 5 0 0 0 - - -;
#X obj 193 323 expr (pow(20 \, $f1)-1)/(20-1);
#N canvas 0 50 645 433 rev1 0;
#X obj 345 154 dbtorms;
#X obj 316 120 min 100;
#X obj 316 100 inlet;
#X obj 45 16 inlet~;
#X obj 254 298 outlet~;
#X obj 432 106 inlet;
#X obj 432 130 t b;
#X obj 269 145 t b f;
#X obj 281 185 -;
#X obj 282 254 line~;
#X obj 282 233 pack 0 100;
#X obj 269 166 105;
#X obj 256 276 *~;
#X obj 282 210 * 0.01;
#X text 282 65 reverb decay speed;
#X text 278 79 (dB left after 1 sec);
#X text 425 84 bang to clear;
#X obj 44 41 rev1-stage \$0 \$0-del1 0 8;
#X obj 44 64 rev1-stage \$0 \$0-del2 1 14.32;
#X obj 44 87 rev1-stage \$0 \$0-del3 2 25.6328;
#X obj 44 110 rev1-stage \$0 \$0-del4 3 45.8827;
#X obj 44 133 rev1-stage \$0 \$0-del5 4 82.1301;
#X obj 44 156 rev1-stage \$0 \$0-del6 5 147.013;
#X obj 44 179 rev1-stage \$0 \$0-del7 6 263.153;
#X obj 44 202 rev1-stage \$0 \$0-del8 7 471.044;
#X obj 44 225 rev1-stage \$0 \$0-del9 8 843.168;
#X obj 44 248 rev1-final \$0 \$0-del10 9 1509.27;
#X obj 346 177 s \$0-decay;
#X obj 432 153 s \$0-clear;
#X connect 0 0 27 0;
#X connect 1 0 0 0;
#X connect 1 0 7 0;
#X connect 2 0 1 0;
#X connect 3 0 17 0;
#X connect 5 0 6 0;
#X connect 6 0 28 0;
#X connect 7 0 11 0;
#X connect 7 1 8 1;
#X connect 8 0 13 0;
#X connect 9 0 12 1;
#X connect 10 0 9 0;
#X connect 11 0 8 0;
#X connect 12 0 4 0;
#X connect 13 0 10 0;
#X connect 17 0 18 0;
#X connect 17 1 18 1;
#X connect 18 0 19 0;
#X connect 18 1 19 1;
#X connect 19 0 20 0;
#X connect 19 1 20 1;
#X connect 20 0 21 0;
#X connect 20 1 21 1;
#X connect 21 0 22 0;
#X connect 21 1 22 1;
#X connect 22 0 23 0;
#X connect 22 1 23 1;
#X connect 23 0 24 0;
#X connect 23 1 24 1;
#X connect 24 0 25 0;
#X connect 24 1 25 1;
#X connect 25 0 26 0;
#X connect 25 1 26 1;
#X connect 26 1 12 0;
#X restore 494 875 pd rev1;
#X msg 580 804 2;
#X obj 697 767 loadbang;
#X obj 63 46 inlet~;
#X obj 96 354 loadbang;
#X obj 164 447 + 1;
#X floatatom 66 543 5 0 0 0 - - -;
#X obj 61 504 expr abs($f1-7);
#X obj 206 482 moses 13;
#X msg 168 416 0;
#X obj 30 342 bng 15 250 50 0 empty empty empty 17 7 0 10 -262144 -1
-1;
#X obj 94 451 i 0;
#X obj 512 71 array define minor;
#X obj 390 118 array set minor;
#X msg 336 61 0 2 3 5 7 8 10 12;
#X obj 71 571 array get minor;
#X floatatom 84 611 5 0 0 0 - - -;
#X obj 95 396 metro 500;
#X obj 98 645 +;
#X obj 206 607 inlet;
#X obj 484 914 outlet~;
#X obj 122 671 expr pow(2 \, $f1/12)*349.23;
#X obj 187 546 loadbang;
#X msg 178 585 0;
#X connect 0 0 27 0;
#X connect 1 0 2 0;
#X connect 2 0 5 0;
#X connect 4 0 27 0;
#X connect 5 0 29 0;
#X connect 6 0 7 0;
#X connect 7 0 10 0;
#X connect 7 1 8 0;
#X connect 7 1 14 0;
#X connect 8 0 7 1;
#X connect 8 0 9 0;
#X connect 9 0 11 0;
#X connect 10 0 13 0;
#X connect 11 0 12 0;
#X connect 12 0 22 1;
#X connect 12 0 26 0;
#X connect 13 0 11 1;
#X connect 14 0 15 0;
#X connect 15 0 11 1;
#X connect 16 0 7 1;
#X connect 17 0 16 0;
#X connect 18 0 20 0;
#X connect 19 0 20 1;
#X connect 20 0 30 0;
#X connect 21 0 19 0;
#X connect 21 0 3 0;
#X connect 22 0 21 0;
#X connect 23 0 22 0;
#X connect 24 0 0 0;
#X connect 24 0 44 0;
#X connect 25 0 17 0;
#X connect 25 1 6 0;
#X connect 26 0 23 0;
#X connect 27 0 1 0;
#X connect 28 0 30 1;
#X connect 29 0 25 0;
#X connect 30 0 50 0;
#X connect 31 0 28 0;
#X connect 32 0 31 0;
#X connect 33 0 1 0;
#X connect 34 0 47 0;
#X connect 35 0 41 1;
#X connect 36 0 45 0;
#X connect 37 0 36 0;
#X connect 38 1 39 0;
#X connect 39 0 41 1;
#X connect 40 0 47 0;
#X connect 41 0 35 0;
#X connect 41 0 38 0;
#X connect 41 0 37 0;
#X connect 44 0 43 0;
#X connect 45 0 46 0;
#X connect 46 0 48 0;
#X connect 47 0 41 0;
#X connect 48 0 51 0;
#X connect 49 0 48 1;
#X connect 51 0 18 0;
#X connect 52 0 53 0;
#X connect 53 0 48 1;
