#N canvas 186 76 836 579 12;
#X obj 96 161 inlet;
#X obj 54 66 inlet~;
#X obj 166 185 inlet;
#X obj 95 418 outlet~;
#X obj 99 376 *~ 1;
#X obj 74 98 delwrite~ chorus 500;
#X obj 132 302 vd~ chorus 500;
#X obj 132 273 +~;
#X obj 253 225 sig~ 12;
#X obj 100 201 osc~ 5;
#X obj 133 242 *~ 2;
#X obj 126 340 *~ 0.5;
#X connect 0 0 9 0;
#X connect 1 0 4 0;
#X connect 1 0 5 0;
#X connect 2 0 10 1;
#X connect 4 0 3 0;
#X connect 6 0 11 0;
#X connect 7 0 6 0;
#X connect 8 0 7 1;
#X connect 9 0 10 0;
#X connect 10 0 7 0;
#X connect 11 0 4 0;
