#N canvas -9 -9 1920 976 12;
#X obj 372 477 vline~;
#X obj 472 589 snapshot~;
#X floatatom 468 612 5 0 0 0 - - -;
#X obj 508 516 bng 15 250 50 0 empty empty empty 17 7 0 10 -262144
-1 -1;
#X obj 485 545 metro 10;
#X obj 238 625 *~;
#X obj 220 315 bng 15 250 50 0 empty empty empty 17 7 0 10 -262144
-1 -1;
#X floatatom 335 355 5 0 3 0 - - -;
#X msg 372 422 0 300;
#X obj 521 235 random 2;
#X obj 472 159 bng 15 250 50 0 empty empty empty 17 7 0 10 -262144
-1 -1;
#X msg 518 140 stop;
#X floatatom 523 264 5 0 0 0 - - -;
#X obj 452 255 f;
#X floatatom 448 284 5 0 0 0 - - -;
#X obj 505 342 +;
#X floatatom 526 365 5 0 0 0 - - -;
#X obj 448 307 * 2;
#X obj 502 306 bng 15 250 50 0 empty empty empty 17 7 0 10 -262144
-1 -1;
#X obj 522 182 metro 500;
#X msg 198 421 1 100 300 \, 0.77 200 400;
#N canvas -9 -9 1920 976 organ_files 0;
#X obj 48 22 loadbang;
#X obj 97 929 soundfiler;
#N canvas 0 22 450 278 (subpatch) 0;
#X array organ_a2 133072 float 2;
#X coords 0 1 133072 -1 100 70 1 0 0;
#X restore 902 149 graph;
#X obj 81 58 bng 15 250 50 0 empty empty empty 17 7 0 10 -262144 -1
-1;
#N canvas 0 22 450 278 (subpatch) 0;
#X array organ_aS2 132792 float 2;
#X coords 0 1 132792 -1 100 70 1 0 0;
#X restore 904 247 graph;
#N canvas 0 22 450 278 (subpatch) 0;
#X array organ_b2 133734 float 2;
#X coords 0 1 133734 -1 100 70 1 0 0;
#X restore 905 341 graph;
#N canvas 0 22 450 278 (subpatch) 0;
#X array organ_c3 133822 float 2;
#X coords 0 1 133822 -1 100 70 1 0 0;
#X restore 902 444 graph;
#N canvas 0 22 450 278 (subpatch) 0;
#X array organ_cS3 133781 float 2;
#X coords 0 1 133781 -1 100 70 1 0 0;
#X restore 903 547 graph;
#N canvas 0 22 450 278 (subpatch) 0;
#X array organ_d3 133679 float 2;
#X coords 0 1 133679 -1 100 70 1 0 0;
#X restore 901 656 graph;
#N canvas 0 22 450 278 (subpatch) 0;
#X array organ_dS3 133696 float 2;
#X coords 0 1 133696 -1 100 70 1 0 0;
#X restore 1034 157 graph;
#N canvas 0 22 450 278 (subpatch) 0;
#X array organ_e3 133825 float 2;
#X coords 0 1 133825 -1 100 70 1 0 0;
#X restore 1036 255 graph;
#N canvas 0 22 450 278 (subpatch) 0;
#X array organ_f3 133705 float 2;
#X coords 0 1 133705 -1 100 70 1 0 0;
#X restore 1037 349 graph;
#N canvas 0 22 450 278 (subpatch) 0;
#X array organ_fS3 133715 float 2;
#X coords 0 1 133715 -1 100 70 1 0 0;
#X restore 1034 452 graph;
#N canvas 0 22 450 278 (subpatch) 0;
#X array organ_g3 133738 float 2;
#X coords 0 1 133738 -1 100 70 1 0 0;
#X restore 1035 555 graph;
#N canvas 0 22 450 278 (subpatch) 0;
#X array organ_gS3 133473 float 2;
#X coords 0 1 133473 -1 100 70 1 0 0;
#X restore 1033 664 graph;
#N canvas 0 22 450 278 (subpatch) 0;
#X array organ_a3 133099 float 2;
#X coords 0 1 133099 -1 100 70 1 0 0;
#X restore 1174 152 graph;
#N canvas 0 22 450 278 (subpatch) 0;
#X array organ_aS3 132812 float 2;
#X coords 0 1 132812 -1 100 70 1 0 0;
#X restore 1176 250 graph;
#N canvas 0 22 450 278 (subpatch) 0;
#X array organ_b3 133672 float 2;
#X coords 0 1 133672 -1 100 70 1 0 0;
#X restore 1177 344 graph;
#N canvas 0 22 450 278 (subpatch) 0;
#X array organ_c4 133755 float 2;
#X coords 0 1 133755 -1 100 70 1 0 0;
#X restore 1174 447 graph;
#N canvas 0 22 450 278 (subpatch) 0;
#X array organ_cS4 133727 float 2;
#X coords 0 1 133727 -1 100 70 1 0 0;
#X restore 1175 550 graph;
#N canvas 0 22 450 278 (subpatch) 0;
#X array organ_d4 133747 float 2;
#X coords 0 1 133747 -1 100 70 1 0 0;
#X restore 1173 659 graph;
#N canvas 0 22 450 278 (subpatch) 0;
#X array organ_dS4 133680 float 2;
#X coords 0 1 133680 -1 100 70 1 0 0;
#X restore 1306 160 graph;
#N canvas 0 22 450 278 (subpatch) 0;
#X array organ_e4 133741 float 2;
#X coords 0 1 133741 -1 100 70 1 0 0;
#X restore 1308 258 graph;
#N canvas 0 22 450 278 (subpatch) 0;
#X array organ_f2 133824 float 2;
#X coords 0 1 133824 -1 100 70 1 0 0;
#X restore 1309 352 graph;
#N canvas 0 22 450 278 (subpatch) 0;
#X array organ_fS2 134657 float 2;
#X coords 0 1 134657 -1 100 70 1 0 0;
#X restore 1306 455 graph;
#N canvas 0 22 450 278 (subpatch) 0;
#X array organ_g2 133843 float 2;
#X coords 0 1 133843 -1 100 70 1 0 0;
#X restore 1307 558 graph;
#N canvas 0 22 450 278 (subpatch) 0;
#X array organ_gS2 133757 float 2;
#X coords 0 1 133757 -1 100 70 1 0 0;
#X restore 1306 667 graph;
#X msg 566 155 read -resize samp_organ_a2.wav organ_a2;
#X msg 568 215 read -resize samp_organ_b2.wav organ_b2;
#X msg 569 248 read -resize samp_organ_c3.wav organ_c3;
#X msg 571 310 read -resize samp_organ_d3.wav organ_d3;
#X msg 571 375 read -resize samp_organ_e3.wav organ_e3;
#X msg 572 409 read -resize samp_organ_f3.wav organ_f3;
#X msg 574 470 read -resize samp_organ_g3.wav organ_g3;
#X msg 576 537 read -resize samp_organ_a3.wav organ_a3;
#X msg 578 597 read -resize samp_organ_b3.wav organ_b3;
#X msg 579 630 read -resize samp_organ_c4.wav organ_c4;
#X msg 581 692 read -resize samp_organ_d4.wav organ_d4;
#X msg 581 757 read -resize samp_organ_e4.wav organ_e4;
#X msg 582 791 read -resize samp_organ_f2.wav organ_f2;
#X msg 584 852 read -resize samp_organ_g2.wav organ_g2;
#X msg 569 185 read -resize samp_organ_aS2.wav organ_aS2;
#X msg 569 278 read -resize samp_organ_cS3.wav organ_cS3;
#X msg 568 344 read -resize samp_organ_dS3.wav organ_dS3;
#X msg 574 438 read -resize samp_organ_fS3.wav organ_fS3;
#X msg 576 500 read -resize samp_organ_gS3.wav organ_gS3;
#X msg 578 566 read -resize samp_organ_aS3.wav organ_aS3;
#X msg 581 662 read -resize samp_organ_cS4.wav organ_cS4;
#X msg 580 726 read -resize samp_organ_dS4.wav organ_dS4;
#X msg 583 822 read -resize samp_organ_fS2.wav organ_fS2;
#X msg 584 884 read -resize samp_organ_gS2.wav organ_gS2;
#X connect 0 0 3 0;
#X connect 3 0 27 0;
#X connect 3 0 41 0;
#X connect 3 0 28 0;
#X connect 3 0 29 0;
#X connect 3 0 42 0;
#X connect 3 0 30 0;
#X connect 3 0 43 0;
#X connect 3 0 31 0;
#X connect 3 0 32 0;
#X connect 3 0 44 0;
#X connect 3 0 33 0;
#X connect 3 0 45 0;
#X connect 3 0 34 0;
#X connect 3 0 46 0;
#X connect 3 0 35 0;
#X connect 3 0 36 0;
#X connect 3 0 47 0;
#X connect 3 0 37 0;
#X connect 3 0 48 0;
#X connect 3 0 38 0;
#X connect 3 0 39 0;
#X connect 3 0 49 0;
#X connect 3 0 40 0;
#X connect 3 0 50 0;
#X connect 27 0 1 0;
#X connect 28 0 1 0;
#X connect 29 0 1 0;
#X connect 30 0 1 0;
#X connect 31 0 1 0;
#X connect 32 0 1 0;
#X connect 33 0 1 0;
#X connect 34 0 1 0;
#X connect 35 0 1 0;
#X connect 36 0 1 0;
#X connect 37 0 1 0;
#X connect 38 0 1 0;
#X connect 39 0 1 0;
#X connect 40 0 1 0;
#X connect 41 0 1 0;
#X connect 42 0 1 0;
#X connect 43 0 1 0;
#X connect 44 0 1 0;
#X connect 45 0 1 0;
#X connect 46 0 1 0;
#X connect 47 0 1 0;
#X connect 48 0 1 0;
#X connect 49 0 1 0;
#X connect 50 0 1 0;
#X restore 668 287 pd organ_files;
#X obj 337 385 route 1 2;
#X obj 73 353 tabplay~ organ_b2;
#X floatatom 185 171 5 0 0 0 - - -;
#N canvas 914 337 737 533 organ_set 0;
#X obj 63 51 inlet;
#X obj 46 116 route 0 1 2 3 4 5 6 7 8 9 10 11 12 13 14 15 16 17 18
19 20 21 22 23, f 81;
#X obj 290 380 outlet;
#X msg 14 154 set organ_f2;
#X msg 31 181 set organ_fS2;
#X msg 54 208 set organ_g2;
#X msg 75 236 set organ_gS2;
#X msg 94 265 set organ_a2;
#X msg 116 293 set organ_aS2;
#X msg 138 153 set organ_b2;
#X msg 155 181 set organ_c3;
#X msg 178 207 set organ_cS3;
#X msg 199 235 set organ_d3;
#X msg 218 264 set organ_dS3;
#X msg 240 292 set organ_e3;
#X msg 270 162 set organ_f3;
#X msg 287 189 set organ_fS3;
#X msg 310 216 set organ_g3;
#X msg 331 244 set organ_gS3;
#X msg 350 273 set organ_a3;
#X msg 372 301 set organ_aS3;
#X msg 393 162 set organ_b3;
#X msg 411 189 set organ_c4;
#X msg 434 215 set organ_cS4;
#X msg 455 243 set organ_d4;
#X msg 474 272 set organ_dS4;
#X msg 494 301 set organ_e4;
#X connect 0 0 1 0;
#X connect 1 0 3 0;
#X connect 1 1 4 0;
#X connect 1 2 5 0;
#X connect 1 3 6 0;
#X connect 1 4 7 0;
#X connect 1 5 8 0;
#X connect 1 6 9 0;
#X connect 1 7 10 0;
#X connect 1 8 11 0;
#X connect 1 9 12 0;
#X connect 1 10 13 0;
#X connect 1 11 14 0;
#X connect 1 12 15 0;
#X connect 1 13 16 0;
#X connect 1 14 17 0;
#X connect 1 15 18 0;
#X connect 1 16 19 0;
#X connect 1 17 20 0;
#X connect 1 18 21 0;
#X connect 1 19 22 0;
#X connect 1 20 23 0;
#X connect 1 21 24 0;
#X connect 1 22 25 0;
#X connect 1 23 26 0;
#X connect 3 0 2 0;
#X connect 4 0 2 0;
#X connect 5 0 2 0;
#X connect 6 0 2 0;
#X connect 7 0 2 0;
#X connect 8 0 2 0;
#X connect 9 0 2 0;
#X connect 10 0 2 0;
#X connect 11 0 2 0;
#X connect 12 0 2 0;
#X connect 13 0 2 0;
#X connect 14 0 2 0;
#X connect 15 0 2 0;
#X connect 16 0 2 0;
#X connect 17 0 2 0;
#X connect 18 0 2 0;
#X connect 19 0 2 0;
#X connect 20 0 2 0;
#X connect 21 0 2 0;
#X connect 22 0 2 0;
#X connect 23 0 2 0;
#X connect 24 0 2 0;
#X connect 25 0 2 0;
#X connect 26 0 2 0;
#X restore 149 266 pd organ_set;
#X floatatom 179 106 5 0 0 0 - - -;
#X obj 181 219 +;
#X floatatom 342 142 5 0 11 0 - - -;
#X obj 556 86 loadbang;
#X obj 211 696 outlet~;
#X obj 368 63 inlet;
#X obj 188 69 random 8;
#X obj 189 140 array get minor;
#X connect 0 0 1 0;
#X connect 0 0 5 1;
#X connect 1 0 2 0;
#X connect 3 0 4 0;
#X connect 4 0 1 0;
#X connect 5 0 30 0;
#X connect 6 0 23 0;
#X connect 6 0 32 0;
#X connect 7 0 22 0;
#X connect 8 0 0 0;
#X connect 9 0 12 0;
#X connect 10 0 19 0;
#X connect 11 0 19 0;
#X connect 12 0 13 1;
#X connect 12 0 15 1;
#X connect 12 0 18 0;
#X connect 13 0 14 0;
#X connect 14 0 17 0;
#X connect 15 0 16 0;
#X connect 15 0 7 0;
#X connect 17 0 15 0;
#X connect 18 0 15 0;
#X connect 19 0 13 0;
#X connect 19 0 9 0;
#X connect 20 0 0 0;
#X connect 22 0 20 0;
#X connect 22 0 6 0;
#X connect 22 1 8 0;
#X connect 23 0 5 0;
#X connect 24 0 27 0;
#X connect 25 0 23 0;
#X connect 26 0 33 0;
#X connect 27 0 25 0;
#X connect 28 0 27 1;
#X connect 29 0 10 0;
#X connect 31 0 28 0;
#X connect 32 0 26 0;
#X connect 33 0 24 0;
