#N canvas 0 50 450 300 12;
#X floatatom 226 17 5 0 0 0 - - -;
#X floatatom 246 184 5 0 0 0 - - -;
#X obj 148 224 snapshot~;
#X msg 52 124 bang;
#X obj 153 186 osc~ 1;
#X obj 240 44 inlet;
#X obj 95 32 loadbang;
#X msg 163 92 1;
#X obj 187 71 bng 15 250 50 0 empty empty empty 17 7 0 10 -262144 -1
-1;
#X obj 183 126 /;
#X msg 310 120 0, f 8;
#X obj 294 77 inlet;
#X obj 152 263 outlet;
#X floatatom 238 89 5 0 0 0 - - -;
#X obj 56 185 metro 1;
#X connect 0 0 9 1;
#X connect 0 0 8 0;
#X connect 2 0 12 0;
#X connect 3 0 14 0;
#X connect 4 0 2 0;
#X connect 5 0 9 1;
#X connect 5 0 8 0;
#X connect 5 0 13 0;
#X connect 6 0 7 0;
#X connect 6 0 3 0;
#X connect 7 0 9 0;
#X connect 8 0 7 0;
#X connect 9 0 1 0;
#X connect 9 0 4 0;
#X connect 10 0 4 1;
#X connect 11 0 4 1;
#X connect 14 0 2 0;
