#N canvas 0 25 1792 992 12;
#X floatatom 387 94 5 0 0 0 - - -;
#X obj 72 224 * 1;
#X obj 121 224 * 2;
#X obj 185 225 * 3;
#X obj 252 228 * 4;
#X obj 308 227 * 5;
#X obj 369 229 * 6;
#X obj 441 229 * 7;
#X obj 510 229 * 8;
#X obj 580 229 * 9;
#X obj 648 228 * 10;
#X obj 712 230 * 11;
#X obj 70 260 osc~;
#X obj 70 305 *~ 1;
#X obj 121 261 osc~;
#X obj 120 304 *~ 0.5;
#X obj 185 263 osc~;
#X obj 185 305 *~ 0.38;
#X obj 250 263 osc~;
#X obj 250 306 *~ 0.5;
#X obj 308 264 osc~;
#X obj 306 304 *~ 0.4;
#X obj 368 264 osc~;
#X obj 370 304 *~ 0.25;
#X obj 443 264 osc~;
#X obj 444 300 *~ 0.2;
#X obj 511 263 osc~;
#X obj 512 303 *~ 0.12;
#X obj 582 263 osc~;
#X obj 583 303 *~ 0.18;
#X obj 647 263 osc~;
#X obj 712 264 osc~;
#X obj 404 477 *~ 0.25;
#X obj 714 304 *~ 0.05;
#X obj 648 302 *~ 0.08;
#X obj 413 540 outlet~;
#X obj 387 53 inlet;
#X connect 0 0 1 0;
#X connect 0 0 2 0;
#X connect 0 0 3 0;
#X connect 0 0 4 0;
#X connect 0 0 5 0;
#X connect 0 0 6 0;
#X connect 0 0 7 0;
#X connect 0 0 8 0;
#X connect 0 0 9 0;
#X connect 0 0 10 0;
#X connect 0 0 11 0;
#X connect 1 0 12 0;
#X connect 2 0 14 0;
#X connect 3 0 16 0;
#X connect 4 0 18 0;
#X connect 5 0 20 0;
#X connect 6 0 22 0;
#X connect 7 0 24 0;
#X connect 8 0 26 0;
#X connect 9 0 28 0;
#X connect 10 0 30 0;
#X connect 11 0 31 0;
#X connect 12 0 13 0;
#X connect 13 0 32 0;
#X connect 14 0 15 0;
#X connect 15 0 32 0;
#X connect 16 0 17 0;
#X connect 17 0 32 0;
#X connect 18 0 19 0;
#X connect 19 0 32 0;
#X connect 20 0 21 0;
#X connect 21 0 32 0;
#X connect 22 0 23 0;
#X connect 23 0 32 0;
#X connect 24 0 25 0;
#X connect 25 0 32 0;
#X connect 26 0 27 0;
#X connect 27 0 32 0;
#X connect 28 0 29 0;
#X connect 29 0 32 0;
#X connect 30 0 34 0;
#X connect 31 0 33 0;
#X connect 32 0 35 0;
#X connect 33 0 32 0;
#X connect 34 0 32 0;
#X connect 36 0 0 0;
