#N canvas 0 50 450 300 12;
#X obj 195 50 osc~ 3;
#X obj 80 11 inlet~;
#X obj 130 268 outlet~;
#X obj 192 8 inlet;
#X obj 194 132 clip~ -1 1;
#X obj 299 127 inlet;
#X obj 193 178 *~;
#X obj 193 202 +~;
#X obj 145 233 *~;
#X obj 298 173 expr 1 -$f1;
#X floatatom 282 48 5 0 0 0 - - -;
#X floatatom 268 211 5 0 0 0 - - -;
#X obj 194 108 *~ 2;
#X obj 349 31 loadbang;
#X msg 357 83 0;
#X connect 0 0 12 0;
#X connect 1 0 8 0;
#X connect 3 0 0 0;
#X connect 3 0 10 0;
#X connect 4 0 6 0;
#X connect 5 0 6 1;
#X connect 5 0 9 0;
#X connect 5 0 11 0;
#X connect 6 0 7 0;
#X connect 7 0 8 1;
#X connect 8 0 2 0;
#X connect 9 0 7 1;
#X connect 12 0 4 0;
#X connect 13 0 14 0;
#X connect 14 0 6 1;
#X connect 14 0 9 0;
